<?xml version="1.0" encoding="utf-8"?>
<!-- Generator: Adobe Illustrator 25.2.0, SVG Export Plug-In . SVG Version: 6.00 Build 0)  -->
<svg version="1.1" id="Calque_1" xmlns="http://www.w3.org/2000/svg" xmlns:xlink="http://www.w3.org/1999/xlink" x="0px" y="0px"
	 viewBox="0 0 246 135" style="enable-background:new 0 0 246 135;" xml:space="preserve">
<style type="text/css">
	.st0{fill:#FD2D01;}
	.st1{fill:#FFD7D7;}
</style>
<g id="_x37_e319840-739a-a0f1-f316-ea813584ba79" transform="matrix(2.8,0,0,2.8,30.62199562788011,167.12059412002563)">
	<path class="st0" d="M-4.2-16.6L-4.2-16.6c-1.5,0-2.7-0.5-3.7-1.5l0,0l0,0c-1-1-1.5-2.2-1.5-3.7l0,0l0,0c0-1.4,0.5-2.7,1.5-3.6l0,0
		l0,0c1-1,2.2-1.5,3.7-1.5l0,0l0,0c1.5,0,2.7,0.5,3.8,1.4l0,0L-1.8-24l0,0c-0.7-0.5-1.5-0.8-2.4-0.8l0,0l0,0c-0.9,0-1.7,0.3-2.2,0.9
		l0,0l0,0c-0.6,0.6-0.8,1.3-0.8,2.2l0,0l0,0c0,1,0.3,1.7,0.9,2.3l0,0l0,0c0.6,0.6,1.3,0.8,2.2,0.8l0,0l0,0c0.7,0,1.3-0.1,1.7-0.4
		l0,0v-1.8l-1.4,0v-1.9h3.4v4.8l0,0C-1.5-17-2.8-16.6-4.2-16.6L-4.2-16.6z M3.2-23.4v0.8l0,0c0.5-0.5,1.1-0.8,1.8-0.8l0,0l0,0
		c0.2,0,0.4,0,0.6,0l0,0l-0.3,1.9l0,0c-0.2-0.2-0.5-0.3-0.9-0.3l0,0l0,0c-0.5,0-0.9,0.4-1.2,1l0,0v4.2H1.3v-6.6L3.2-23.4z M10-16.5
		L10-16.5c-1,0-1.8-0.3-2.5-1l0,0l0,0c-0.7-0.7-1-1.5-1-2.5l0,0l0,0c0-1,0.3-1.8,1-2.5l0,0l0,0c0.7-0.7,1.5-1,2.5-1l0,0l0,0
		c1,0,1.8,0.3,2.5,1l0,0l0,0c0.7,0.7,1,1.5,1,2.5l0,0l0,0c0,1-0.3,1.8-1,2.5l0,0l0,0C11.8-16.8,11-16.5,10-16.5L10-16.5z M10-18.2
		L10-18.2L10-18.2c0.5,0,0.9-0.2,1.3-0.5l0,0l0,0c0.3-0.3,0.5-0.8,0.5-1.3l0,0l0,0c0-0.5-0.2-1-0.5-1.3l0,0l0,0
		c-0.3-0.4-0.8-0.5-1.3-0.5l0,0l0,0c-0.5,0-0.9,0.2-1.3,0.5l0,0l0,0c-0.3,0.3-0.5,0.8-0.5,1.3l0,0l0,0c0,0.5,0.2,1,0.5,1.3l0,0l0,0
		C9-18.3,9.4-18.2,10-18.2z M18.9-19L18.9-19v-4.4h1.9v6.8h-1.9v-0.6l0,0c-0.5,0.4-1,0.6-1.6,0.6l0,0l0,0c-0.9,0-1.5-0.3-2-0.8l0,0
		l0,0c-0.5-0.5-0.7-1.1-0.7-1.8l0,0v-4.2h1.9v3.8l0,0c0,0.5,0.1,0.8,0.3,1.1l0,0l0,0c0.2,0.3,0.6,0.4,1,0.4l0,0l0,0
		C18.3-18.2,18.6-18.5,18.9-19z M24.3-13.7l-1.9,0v-9.5l1.9-0.2v0.5l0,0c0.5-0.4,1-0.5,1.5-0.5l0,0l0,0c1,0,1.9,0.3,2.5,1l0,0l0,0
		c0.6,0.7,0.9,1.5,0.9,2.4l0,0l0,0c0,0.9-0.3,1.7-0.9,2.4l0,0l0,0c-0.6,0.7-1.4,1-2.5,1l0,0l0,0c-0.7,0-1.2-0.2-1.5-0.6l0,0V-13.7z
		 M24.3-20.6L24.3-20.6v1.1l0,0c0.1,0.8,0.6,1.2,1.4,1.4l0,0l0,0c1.1-0.1,1.7-0.7,1.8-1.7l0,0l0,0c0-1.3-0.7-1.9-1.8-2l0,0l0,0
		C24.9-21.7,24.4-21.3,24.3-20.6z M33.7-16.5L33.7-16.5c-1,0-1.8-0.3-2.5-1l0,0l0,0c-0.7-0.7-1-1.5-1-2.5l0,0l0,0c0-1,0.3-1.8,1-2.5
		l0,0l0,0c0.7-0.7,1.5-1,2.5-1l0,0l0,0c1,0,1.8,0.3,2.5,1l0,0l0,0c0.7,0.7,1,1.5,1,2.5l0,0l0,0c0,1-0.3,1.8-1,2.5l0,0l0,0
		C35.5-16.8,34.7-16.5,33.7-16.5L33.7-16.5z M33.7-18.2L33.7-18.2L33.7-18.2c0.5,0,0.9-0.2,1.3-0.5l0,0l0,0c0.3-0.3,0.5-0.8,0.5-1.3
		l0,0l0,0c0-0.5-0.2-1-0.5-1.3l0,0l0,0c-0.3-0.4-0.7-0.5-1.3-0.5l0,0l0,0c-0.5,0-0.9,0.2-1.3,0.5l0,0l0,0C32.1-20.9,32-20.5,32-20
		l0,0l0,0c0,0.5,0.2,1,0.5,1.3l0,0l0,0C32.8-18.3,33.2-18.2,33.7-18.2z M40.4-20.9L40.4-20.9v4.4h-1.9v-6.6l1.9-0.2v0.6l0,0
		c0.4-0.4,1-0.6,1.6-0.6l0,0l0,0c0.9,0,1.5,0.3,2,0.8l0,0l0,0c0.5-0.5,1.3-0.8,2.2-0.8l0,0l0,0c0.9,0,1.5,0.3,2,0.8l0,0l0,0
		c0.5,0.5,0.7,1.1,0.7,1.8l0,0v4.2H47v-3.8l0,0c0-0.5-0.1-0.8-0.3-1.1l0,0l0,0c-0.2-0.2-0.5-0.4-1-0.4l0,0l0,0c-0.4,0-0.7,0.3-1,0.8
		l0,0l0,0c0,0.1,0,0.3,0,0.4l0,0v4h-1.9v-3.8l0,0c0-0.5-0.1-0.8-0.3-1.1l0,0l0,0c-0.2-0.2-0.5-0.4-1-0.4l0,0l0,0
		C41-21.8,40.7-21.5,40.4-20.9z M51.5-21.4l-0.8-1.2l0,0c0.9-0.5,1.9-0.8,3-0.8l0,0l0,0c0.8,0,1.5,0.2,1.9,0.7l0,0l0,0
		c0.5,0.5,0.7,1.1,0.7,2l0,0v4.1h-1.9v-0.5l0,0c-0.6,0.4-1.1,0.5-1.5,0.5l0,0l0,0c-0.9,0-1.6-0.2-2-0.6l0,0l0,0
		c-0.5-0.4-0.7-0.9-0.7-1.6l0,0l0,0c0-0.6,0.2-1.2,0.7-1.7l0,0l0,0c0.4-0.5,1.1-0.8,2.1-0.8l0,0l0,0c0.4,0,1,0.1,1.5,0.4l0,0V-21
		l0,0c0-0.5-0.4-0.8-1.1-0.8l0,0l0,0C52.6-21.8,52-21.7,51.5-21.4L51.5-21.4z M54.5-18.6L54.5-18.6v-0.8l0,0
		c-0.2-0.4-0.6-0.5-1.3-0.5l0,0l0,0c-0.8,0.1-1.3,0.4-1.3,1l0,0l0,0c0,0.5,0.5,0.8,1.3,0.9l0,0l0,0C53.9-18.1,54.3-18.3,54.5-18.6z
		 M60-20.9L60-20.9v4.3h-1.9v-6.6l1.9-0.2v0.6l0,0c0.5-0.4,1-0.6,1.6-0.6l0,0l0,0c0.9,0,1.5,0.3,2,0.8l0,0l0,0
		c0.5,0.5,0.7,1.1,0.7,1.8l0,0v4.2h-1.9v-3.8l0,0c0-0.5-0.1-0.8-0.3-1.1l0,0l0,0c-0.2-0.2-0.6-0.4-1-0.4l0,0l0,0
		C60.7-21.8,60.3-21.5,60-20.9z M67.9-16.6H66v-6.8h1.9V-16.6z M65.9-25L65.9-25L65.9-25c0,0.3,0.1,0.5,0.3,0.7l0,0l0,0
		c0.2,0.2,0.4,0.3,0.8,0.3l0,0l0,0c0.3,0,0.6-0.1,0.8-0.3l0,0l0,0c0.2-0.2,0.3-0.4,0.3-0.7l0,0l0,0c0-0.3-0.1-0.5-0.3-0.7l0,0l0,0
		c-0.2-0.2-0.4-0.3-0.8-0.3l0,0l0,0c-0.3,0-0.6,0.1-0.7,0.3l0,0l0,0C66-25.5,65.9-25.3,65.9-25z M70.4-21.4l-0.8-1.2l0,0
		c0.9-0.5,1.9-0.8,3-0.8l0,0l0,0c0.8,0,1.5,0.2,1.9,0.7l0,0l0,0c0.5,0.5,0.7,1.1,0.7,2l0,0v4.1h-1.9v-0.5l0,0
		c-0.6,0.4-1.1,0.5-1.5,0.5l0,0l0,0c-0.9,0-1.6-0.2-2.1-0.6l0,0l0,0c-0.5-0.4-0.7-0.9-0.7-1.6l0,0l0,0c0-0.6,0.2-1.2,0.7-1.7l0,0
		l0,0c0.4-0.5,1.1-0.8,2.1-0.8l0,0l0,0c0.4,0,0.9,0.1,1.5,0.4l0,0V-21l0,0c0-0.5-0.4-0.8-1.1-0.8l0,0l0,0
		C71.5-21.8,70.9-21.7,70.4-21.4L70.4-21.4z M73.4-18.6L73.4-18.6v-0.8l0,0c-0.2-0.4-0.6-0.5-1.3-0.5l0,0l0,0
		c-0.8,0.1-1.3,0.4-1.3,1l0,0l0,0c0,0.5,0.5,0.8,1.3,0.9l0,0l0,0C72.8-18.1,73.2-18.3,73.4-18.6z"/>
</g>
<g id="_x34_cb061db-73fa-16fe-1d0a-15980590225e" transform="matrix(0.2931737713407769,0,0,0.2931737713407769,106.0239289062273,82.12728504171139)">
	<g>
		<path class="st1" d="M57.9-3.9c33.6,0,65.1-12.9,88.8-36.6c23.7-23.7,36.6-55.2,36.6-88.8c0-33.6-12.9-65.1-36.6-88.8
			c-23.7-23.7-55.2-36.6-88.8-36.6s-65.1,12.9-88.8,36.6c-23.7,23.7-36.6,55.2-36.6,88.8s12.9,65.1,36.6,88.8S24.3-3.9,57.9-3.9z
			 M65.1-25.2c-2.4,0.3-4.8,0.3-7.2,0.3c-3.3,0-6.6-0.3-9.9-0.6C37.2-42.3,29.1-60.3,24.3-79.2h53.1c1.8,4.5,5.1,8.7,9,11.4
			C81.3-52.8,74.1-38.7,65.1-25.2z M93.6-31.2c5.7-10.5,10.2-21,13.8-32.1c8.7-1.8,15.6-7.8,18.9-15.9h23.1
			C137.4-57.3,117.3-40.2,93.6-31.2z M162-129.3c0,9.9-1.5,19.5-3.9,28.8h-32.4c-1.8-3.9-4.8-7.5-8.4-10.2
			c0.6-6.6,0.9-13.2,0.9-19.8c0-9.3-0.6-18.6-1.8-27.6h41.4C160.8-149.1,162-139.2,162-129.3z M149.4-179.4h-36.6
			c-3.9-16.5-9.6-32.1-17.4-47.1C118.2-217.8,137.4-200.7,149.4-179.4z M97.2-130.5c0,5.1-0.3,10.2-0.6,15.3
			c-8.4,1.8-15.3,7.2-18.6,14.7H20.1c-1.2-9-2.1-18.3-2.1-27.3c0-5.7,0.3-11.4,0.9-17.1c7.8-1.5,14.1-6.6,18-13.2h58.5
			C96.6-149.1,97.2-139.8,97.2-130.5L97.2-130.5z M50.1-233.1c2.7-0.3,5.4-0.3,7.8-0.3c3,0,6,0,9,0.3c10.8,16.8,18.9,34.8,23.7,53.7
			H38.4c-1.8-5.1-5.1-9.6-9.3-12.9C34.5-206.7,41.4-220.2,50.1-233.1L50.1-233.1z M21.6-227.1c-5.1,9.6-9.6,19.8-13.2,30
			c-9.3,1.8-16.8,8.7-19.8,17.4h-21.9C-21.6-201-2.1-218.1,21.6-227.1z M-46.2-129.3c0-9.9,1.5-19.8,4.2-28.8h32.7
			c1.8,3.3,4.5,6.3,7.5,8.7C-2.4-142.2-3-135-3-127.8c0,9.3,0.6,18.3,1.8,27.3H-42C-45-109.8-46.2-119.4-46.2-129.3z M2.4-79.5
			C6.3-63.3,12-47.4,19.8-32.4c-22.8-9-41.7-25.8-53.4-47.1H2.4z"/>
	</g>
</g>
</svg>
