<?xml version="1.0" encoding="utf-8"?>
<!-- Generator: Adobe Illustrator 25.2.0, SVG Export Plug-In . SVG Version: 6.00 Build 0)  -->
<svg version="1.1" id="Calque_1" xmlns="http://www.w3.org/2000/svg" xmlns:xlink="http://www.w3.org/1999/xlink" x="0px" y="0px"
	 viewBox="0 0 496.1 102.4" style="enable-background:new 0 0 496.1 102.4;" xml:space="preserve">
<style type="text/css">
	.st0{fill:#FD2D01;}
	.st1{fill:#FFD7D7;}
</style>
<g id="b5a93e15-ef7c-9d7a-680b-cdb17474f15f" transform="matrix(2.2,0,0,2.2,90.86749374866484,130.23299922943116)">
	<path class="st0" d="M18.9-28.3L18.9-28.3c-3,0-5.5-1-7.5-3l0,0l0,0c-2-2-3-4.5-3-7.5l0,0l0,0c0-2.9,1-5.4,3-7.4l0,0l0,0
		c2-2,4.5-3,7.5-3l0,0l0,0c3,0,5.5,0.9,7.7,2.8l0,0l-2.8,3l0,0c-1.4-1.1-3.1-1.7-4.9-1.7l0,0l0,0c-1.9,0-3.4,0.6-4.6,1.8l0,0l0,0
		c-1.1,1.2-1.7,2.6-1.7,4.5l0,0l0,0c0,1.9,0.6,3.5,1.7,4.6l0,0l0,0c1.2,1.1,2.7,1.7,4.6,1.7l0,0l0,0c1.5,0,2.7-0.3,3.5-0.9l0,0V-37
		l-2.8,0v-3.9h7v9.8l0,0C24.5-29.2,21.9-28.3,18.9-28.3L18.9-28.3z M34.1-42.3v1.6l0,0c1-1,2.2-1.5,3.7-1.5l0,0l0,0
		c0.4,0,0.9,0,1.3,0.1l0,0l-0.6,3.9l0,0c-0.4-0.4-1.1-0.6-1.9-0.7l0,0l0,0c-1,0.1-1.7,0.8-2.4,2.1l0,0v8.6h-3.9v-13.5L34.1-42.3z
		 M47.9-28.2L47.9-28.2c-2,0-3.7-0.7-5.1-2l0,0l0,0c-1.3-1.4-2-3-2-5.1l0,0l0,0c0-2,0.7-3.7,2-5.1l0,0l0,0c1.4-1.4,3.1-2,5.1-2l0,0
		l0,0c2,0,3.7,0.7,5.1,2l0,0l0,0c1.4,1.4,2,3.1,2,5.1l0,0l0,0c0,2-0.7,3.7-2,5.1l0,0l0,0C51.6-28.9,50-28.2,47.9-28.2L47.9-28.2z
		 M47.9-31.5L47.9-31.5L47.9-31.5c1,0,1.9-0.4,2.6-1.1l0,0l0,0c0.7-0.7,1-1.6,1-2.7l0,0l0,0c0-1.1-0.3-1.9-1-2.7l0,0l0,0
		C49.8-38.7,49-39,47.9-39l0,0l0,0c-1,0-1.9,0.4-2.6,1.1l0,0l0,0c-0.7,0.7-1,1.6-1,2.7l0,0l0,0c0,1.1,0.3,1.9,1,2.7l0,0l0,0
		C46-31.9,46.9-31.5,47.9-31.5z M66.1-33.3L66.1-33.3v-9H70v14h-3.9v-1.3l0,0c-0.9,0.8-2.1,1.3-3.3,1.3l0,0l0,0
		c-1.8,0-3.1-0.5-4-1.6l0,0l0,0c-0.9-1.1-1.4-2.3-1.4-3.7l0,0v-8.7h3.9v7.7l0,0c0,0.9,0.2,1.6,0.7,2.2l0,0l0,0
		c0.5,0.5,1.2,0.8,2.1,0.8l0,0l0,0C64.9-31.7,65.5-32.2,66.1-33.3z M77.2-22.4l-3.9,0v-19.4l3.9-0.4v1.1l0,0c1-0.7,2.1-1.1,3.1-1.1
		l0,0l0,0c2.1,0,3.8,0.7,5.1,2.1l0,0l0,0c1.3,1.4,1.9,3,1.9,4.9l0,0l0,0c0,1.9-0.6,3.5-1.9,4.9l0,0l0,0c-1.3,1.4-2.9,2.1-5.1,2.1
		l0,0l0,0c-1.4-0.1-2.4-0.5-3.1-1.1l0,0V-22.4z M77.2-36.6L77.2-36.6v2.3l0,0c0.2,1.6,1.2,2.5,2.9,2.8l0,0l0,0
		c2.2-0.2,3.5-1.3,3.8-3.5l0,0l0,0c-0.1-2.6-1.4-4-3.8-4.1l0,0l0,0C78.4-38.8,77.4-38,77.2-36.6z M96.4-28.2L96.4-28.2
		c-2,0-3.7-0.7-5.1-2l0,0l0,0c-1.4-1.4-2-3-2-5.1l0,0l0,0c0-2,0.7-3.7,2-5.1l0,0l0,0c1.3-1.4,3-2,5.1-2l0,0l0,0c2,0,3.7,0.7,5.1,2
		l0,0l0,0c1.4,1.4,2,3.1,2,5.1l0,0l0,0c0,2-0.7,3.7-2,5.1l0,0l0,0C100.1-28.9,98.4-28.2,96.4-28.2L96.4-28.2z M96.4-31.5L96.4-31.5
		L96.4-31.5c1.1,0,1.9-0.4,2.6-1.1l0,0l0,0c0.7-0.7,1-1.6,1-2.7l0,0l0,0c0-1.1-0.3-1.9-1-2.7l0,0l0,0c-0.7-0.7-1.5-1.1-2.6-1.1l0,0
		l0,0c-1,0-1.9,0.4-2.6,1.1l0,0l0,0c-0.7,0.7-1,1.6-1,2.7l0,0l0,0c0,1.1,0.3,1.9,1,2.7l0,0l0,0C94.5-31.9,95.3-31.5,96.4-31.5z
		 M110-37.2L110-37.2v8.9h-3.9v-13.5l3.9-0.4v1.2l0,0c0.9-0.8,2-1.2,3.3-1.2l0,0l0,0c1.8,0,3.1,0.5,4,1.6l0,0l0,0
		c1-1.1,2.6-1.6,4.6-1.6l0,0l0,0c1.8,0,3.1,0.5,4.1,1.6l0,0l0,0c0.9,1.1,1.4,2.3,1.4,3.7l0,0v8.6h-3.9V-36l0,0
		c0-0.9-0.2-1.6-0.6-2.2l0,0l0,0c-0.4-0.5-1.1-0.8-2-0.8l0,0l0,0c-0.8,0.1-1.4,0.6-2,1.5l0,0l0,0c-0.1,0.3-0.1,0.6-0.1,0.9l0,0v8.2
		h-3.9V-36l0,0c0-0.9-0.2-1.6-0.6-2.2l0,0l0,0c-0.4-0.5-1.1-0.8-2-0.8l0,0l0,0C111.4-38.9,110.7-38.3,110-37.2z M132.7-38.2
		l-1.5-2.4l0,0c1.8-1.1,3.8-1.7,6.1-1.7l0,0l0,0c1.7,0,3,0.5,4,1.4l0,0l0,0c1,0.9,1.5,2.3,1.5,4.2l0,0v8.4h-3.9v-1.1l0,0
		c-1.1,0.7-2.2,1.1-3.1,1.1l0,0l0,0c-1.9,0-3.2-0.4-4.2-1.2l0,0l0,0c-0.9-0.8-1.4-1.9-1.4-3.3l0,0l0,0c0-1.3,0.4-2.5,1.3-3.5l0,0
		l0,0c0.9-1,2.3-1.5,4.2-1.5l0,0l0,0c0.9,0,1.9,0.3,3.1,0.8l0,0v-0.4l0,0c0-1-0.8-1.6-2.2-1.7l0,0l0,0
		C135-39.1,133.7-38.8,132.7-38.2L132.7-38.2z M138.9-32.5L138.9-32.5v-1.6l0,0c-0.4-0.7-1.3-1.1-2.7-1.1l0,0l0,0
		c-1.7,0.2-2.6,0.8-2.7,2l0,0l0,0c0.1,1.1,1,1.7,2.7,1.8l0,0l0,0C137.6-31.4,138.5-31.8,138.9-32.5z M150.2-37.2L150.2-37.2v8.9
		h-3.9v-13.5l3.9-0.4v1.3l0,0c0.9-0.8,2.1-1.2,3.3-1.2l0,0l0,0c1.8,0,3.1,0.5,4,1.6l0,0l0,0c0.9,1.1,1.4,2.3,1.4,3.7l0,0v8.6h-3.9
		V-36l0,0c0-0.9-0.2-1.6-0.7-2.2l0,0l0,0c-0.5-0.5-1.2-0.8-2.1-0.8l0,0l0,0C151.4-38.9,150.8-38.3,150.2-37.2z M166.2-28.3h-3.9v-14
		h3.9V-28.3z M162.1-45.6L162.1-45.6L162.1-45.6c0,0.6,0.2,1,0.6,1.4l0,0l0,0c0.4,0.4,0.9,0.6,1.6,0.6l0,0l0,0
		c0.6,0,1.2-0.2,1.5-0.6l0,0l0,0c0.4-0.4,0.6-0.8,0.6-1.4l0,0l0,0c0-0.6-0.2-1-0.6-1.4l0,0l0,0c-0.4-0.4-0.9-0.6-1.6-0.6l0,0l0,0
		c-0.6,0-1.1,0.2-1.5,0.6l0,0l0,0C162.3-46.6,162.1-46.2,162.1-45.6z M171.4-38.2l-1.5-2.4l0,0c1.8-1.1,3.8-1.7,6.1-1.7l0,0l0,0
		c1.7,0,3,0.5,4,1.4l0,0l0,0c1,0.9,1.4,2.3,1.4,4.2l0,0v8.4h-3.9v-1.1l0,0c-1.1,0.7-2.2,1.1-3.1,1.1l0,0l0,0c-1.9,0-3.3-0.4-4.2-1.2
		l0,0l0,0c-0.9-0.8-1.4-1.9-1.4-3.3l0,0l0,0c0-1.3,0.4-2.5,1.3-3.5l0,0l0,0c0.9-1,2.3-1.5,4.3-1.5l0,0l0,0c0.9,0,1.9,0.3,3.1,0.8
		l0,0v-0.4l0,0c0-1-0.8-1.6-2.2-1.7l0,0l0,0C173.6-39.1,172.3-38.8,171.4-38.2L171.4-38.2z M177.5-32.5L177.5-32.5v-1.6l0,0
		c-0.4-0.7-1.3-1.1-2.7-1.1l0,0l0,0c-1.7,0.2-2.6,0.8-2.7,2l0,0l0,0c0.1,1.1,1,1.7,2.7,1.8l0,0l0,0
		C176.3-31.4,177.1-31.8,177.5-32.5z"/>
</g>
<g id="_x39_269873b-566f-aa23-fe77-697bbc54db67" transform="matrix(0.17276311525438642,0,0,0.17276311525438642,35.75002377601375,124.08554457454373)">
	<g>
		<path class="st1" d="M74.3-164.7c68.6,0,132.9-26.3,181.3-74.7c48.4-48.4,74.7-112.7,74.7-181.3c0-68.6-26.3-132.9-74.7-181.3
			c-48.4-48.4-112.7-74.7-181.3-74.7s-132.9,26.3-181.3,74.7c-48.4,48.4-74.7,112.7-74.7,181.3s26.3,132.9,74.7,181.3
			S5.6-164.7,74.3-164.7z M89-208.2c-4.9,0.6-9.8,0.6-14.7,0.6c-6.7,0-13.5-0.6-20.2-1.2C32-243.2,15.4-279.9,5.6-318.5h108.4
			c3.7,9.2,10.4,17.8,18.4,23.3C122-264.6,107.3-235.8,89-208.2z M147.2-220.5c11.6-21.4,20.8-42.9,28.2-65.5
			c17.8-3.7,31.9-15.9,38.6-32.5h47.2C236.6-273.8,195.5-238.9,147.2-220.5z M286.8-420.8c0,20.2-3.1,39.8-8,58.8h-66.2
			c-3.7-8-9.8-15.3-17.2-20.8c1.2-13.5,1.8-27,1.8-40.4c0-19-1.2-38-3.7-56.4h84.5C284.4-461.2,286.8-441,286.8-420.8z M261.1-523.1
			h-74.7c-8-33.7-19.6-65.5-35.5-96.2C197.4-601.5,236.6-566.6,261.1-523.1z M154.5-423.3c0,10.4-0.6,20.8-1.2,31.2
			c-17.2,3.7-31.2,14.7-38,30H-2.9c-2.5-18.4-4.3-37.4-4.3-55.7c0-11.6,0.6-23.3,1.8-34.9c15.9-3.1,28.8-13.5,36.8-27h119.5
			C153.3-461.2,154.5-442.2,154.5-423.3z M58.3-632.8c5.5-0.6,11-0.6,15.9-0.6c6.1,0,12.3,0,18.4,0.6
			c22.1,34.3,38.6,71.1,48.4,109.7H34.4c-3.7-10.4-10.4-19.6-19-26.3C26.5-578.9,40.6-606.4,58.3-632.8z M0.1-620.5
			c-10.4,19.6-19.6,40.4-27,61.3c-19,3.7-34.3,17.8-40.4,35.5H-112C-88.1-567.2-48.3-602.1,0.1-620.5z M-138.3-420.8
			c0-20.2,3.1-40.4,8.6-58.8H-63c3.7,6.7,9.2,12.9,15.3,17.8c-1.2,14.7-2.5,29.4-2.5,44.1c0,19,1.2,37.4,3.7,55.7h-83.3
			C-135.9-381-138.3-400.6-138.3-420.8z M-39.1-319.1c8,33.1,19.6,65.5,35.5,96.2c-46.6-18.4-85.2-52.7-109-96.2H-39.1z"/>
	</g>
</g>
</svg>
