<?xml version="1.0" encoding="UTF-8" standalone="no"?>
<svg
   data-v-1084b650=""
   viewBox="0 0 300 300"
   version="1.1"
   id="svg13"
   sodipodi:docname="logo-alone-blue.svg"
   inkscape:version="1.1 (c68e22c387, 2021-05-23)"
   xmlns:inkscape="http://www.inkscape.org/namespaces/inkscape"
   xmlns:sodipodi="http://sodipodi.sourceforge.net/DTD/sodipodi-0.dtd"
   xmlns="http://www.w3.org/2000/svg"
   xmlns:svg="http://www.w3.org/2000/svg">
  <defs
     id="defs17" />
  <sodipodi:namedview
     id="namedview15"
     pagecolor="#ffffff"
     bordercolor="#666666"
     borderopacity="1.0"
     inkscape:pageshadow="2"
     inkscape:pageopacity="0.0"
     inkscape:pagecheckerboard="0"
     showgrid="false"
     inkscape:zoom="2.0576807"
     inkscape:cx="138.26246"
     inkscape:cy="115.42121"
     inkscape:window-width="2560"
     inkscape:window-height="1377"
     inkscape:window-x="-8"
     inkscape:window-y="-8"
     inkscape:window-maximized="1"
     inkscape:current-layer="svg13" />
  <!---->
  <!---->
  <rect
     data-v-1084b650=""
     fill="#FFFFFF"
     x="0"
     y="0"
     width="300px"
     height="300px"
     class="logo-background-square"
     id="rect2" />
  <!---->
  <!---->
  <g
     data-v-1084b650=""
     id="640fb903-7c97-3a8b-d0a7-369102908d0a"
     fill="#FFD7D7"
     stroke="none"
     transform="matrix(1.1522866,0,0,1.1586355,-22.009966,-23.720268)"
     style="fill:#091f43;fill-opacity:1">
    <svg
       viewBox="-205 207 100 100"
       version="1.1"
       id="svg10"
       style="fill:#091f43;fill-opacity:1"
       width="100%"
       height="100%">
      <switch
         id="switch8"
         style="fill:#091f43;fill-opacity:1">
        <g
           id="g6"
           style="fill:#091f43;fill-opacity:1">
          <path
             d="m -155,298.8 c 11.2,0 21.7,-4.3 29.6,-12.2 7.9,-7.9 12.2,-18.4 12.2,-29.6 0,-11.2 -4.3,-21.7 -12.2,-29.6 -7.9,-7.9 -18.4,-12.2 -29.6,-12.2 -11.2,0 -21.7,4.3 -29.6,12.2 -7.9,7.9 -12.2,18.4 -12.2,29.6 0,11.2 4.3,21.7 12.2,29.6 7.9,7.9 18.4,12.2 29.6,12.2 z m 2.4,-7.1 c -0.8,0.1 -1.6,0.1 -2.4,0.1 -1.1,0 -2.2,-0.1 -3.3,-0.2 -3.6,-5.6 -6.3,-11.6 -7.9,-17.9 h 17.7 c 0.6,1.5 1.7,2.9 3,3.8 -1.7,5 -4.1,9.7 -7.1,14.2 z m 9.5,-2 c 1.9,-3.5 3.4,-7 4.6,-10.7 2.9,-0.6 5.2,-2.6 6.3,-5.3 h 7.7 c -4,7.3 -10.7,13 -18.6,16 z m 22.8,-32.7 c 0,3.3 -0.5,6.5 -1.3,9.6 h -10.8 c -0.6,-1.3 -1.6,-2.5 -2.8,-3.4 0.2,-2.2 0.3,-4.4 0.3,-6.6 0,-3.1 -0.2,-6.2 -0.6,-9.2 h 13.8 c 1,3 1.4,6.3 1.4,9.6 z m -4.2,-16.7 h -12.2 c -1.3,-5.5 -3.2,-10.7 -5.8,-15.7 7.6,2.9 14,8.6 18,15.7 z m -17.4,16.3 c 0,1.7 -0.1,3.4 -0.2,5.1 -2.8,0.6 -5.1,2.4 -6.2,4.9 h -19.3 c -0.4,-3 -0.7,-6.1 -0.7,-9.1 0,-1.9 0.1,-3.8 0.3,-5.7 2.6,-0.5 4.7,-2.2 6,-4.4 h 19.5 c 0.4,3 0.6,6.1 0.6,9.2 z m -15.7,-34.2 c 0.9,-0.1 1.8,-0.1 2.6,-0.1 1,0 2,0 3,0.1 3.6,5.6 6.3,11.6 7.9,17.9 h -17.4 c -0.6,-1.7 -1.7,-3.2 -3.1,-4.3 1.8,-4.8 4.1,-9.3 7,-13.6 z m -9.5,2 c -1.7,3.2 -3.2,6.6 -4.4,10 -3.1,0.6 -5.6,2.9 -6.6,5.8 h -7.3 c 3.9,-7.1 10.4,-12.8 18.3,-15.8 z m -22.6,32.6 c 0,-3.3 0.5,-6.6 1.4,-9.6 h 10.9 c 0.6,1.1 1.5,2.1 2.5,2.9 -0.2,2.4 -0.4,4.8 -0.4,7.2 0,3.1 0.2,6.1 0.6,9.1 h -13.6 c -1,-3.1 -1.4,-6.3 -1.4,-9.6 z m 16.2,16.6 c 1.3,5.4 3.2,10.7 5.8,15.7 -7.6,-3 -13.9,-8.6 -17.8,-15.7 z"
             id="path4"
             style="fill:#091f43;fill-opacity:1" />
        </g>
      </switch>
    </svg>
  </g>
</svg>
