<?xml version="1.0" encoding="UTF-8" standalone="no"?>
<svg
   data-v-1084b650=""
   viewBox="0 0 300 300"
   version="1.1"
   id="svg37"
   sodipodi:docname="favicon.svg"
   inkscape:version="1.1 (c68e22c387, 2021-05-23)"
   xmlns:inkscape="http://www.inkscape.org/namespaces/inkscape"
   xmlns:sodipodi="http://sodipodi.sourceforge.net/DTD/sodipodi-0.dtd"
   xmlns="http://www.w3.org/2000/svg"
   xmlns:svg="http://www.w3.org/2000/svg">
  <defs
     id="defs41" />
  <sodipodi:namedview
     id="namedview39"
     pagecolor="#ffffff"
     bordercolor="#666666"
     borderopacity="1.0"
     inkscape:pageshadow="2"
     inkscape:pageopacity="0.0"
     inkscape:pagecheckerboard="0"
     showgrid="false"
     inkscape:zoom="3.8966667"
     inkscape:cx="106.37297"
     inkscape:cy="150"
     inkscape:window-width="2560"
     inkscape:window-height="1377"
     inkscape:window-x="-8"
     inkscape:window-y="-8"
     inkscape:window-maximized="1"
     inkscape:current-layer="svg37" />
  <!---->
  <!---->
  <!---->
  <!---->
  <path
     style="fill:#ff8080;stroke-width:0.357764"
     d="m 139.39736,298.34332 c -0.68827,-0.0783 -3.10159,-0.31639 -5.36297,-0.52878 -2.26138,-0.21238 -6.44449,-0.78369 -9.29579,-1.26954 C 88.86986,290.43271 57.094576,271.64806 34.09067,242.95646 -8.9946137,189.21838 -8.9951034,111.13079 34.089505,57.37651 48.037641,39.974175 64.931418,26.382203 84.516407,16.805287 105.49105,6.5488261 126.32462,1.776378 150.12326,1.776378 c 23.88166,0 45.42066,4.9685706 66.1432,15.257789 35.38009,17.567047 62.4481,48.78584 74.67833,86.130103 15.76206,48.12835 6.41391,100.8509 -24.78637,139.79219 -24.59025,30.69128 -58.7534,49.73863 -98.15864,54.72736 -4.22749,0.53518 -25.40837,1.02357 -28.60242,0.6595 z m 17.29633,-24.43792 2.10129,-0.22966 2.86894,-4.47049 c 8.13729,-12.67979 15.78334,-27.98549 20.65552,-41.34776 l 1.695,-4.64849 -2.98599,-2.79733 c -3.02258,-2.83166 -5.64749,-6.35236 -6.97284,-9.35246 l -0.72629,-1.64411 h -31.59896 -31.59894 l 0.88434,3.31151 c 4.63177,17.34369 13.06543,37.04552 22.94869,53.61017 4.67229,7.83093 3.78341,7.08035 8.82945,7.45543 5.12952,0.38122 11.00896,0.42912 13.89979,0.11321 z m 41.40254,-9.5571 c 1.24306,-0.51982 4.59299,-2.13784 7.44429,-3.59558 18.74927,-9.58569 34.84296,-23.6231 46.59511,-40.64166 2.48481,-3.59831 6.31945,-9.91452 6.31945,-10.40905 0,-0.15779 -6.16977,-0.28691 -13.71066,-0.28691 H 231.0338 l -0.67997,1.51837 c -1.90396,4.25152 -6.48047,9.78932 -10.21778,12.36399 -2.42841,1.67297 -6.21111,3.4883 -9.0776,4.35631 l -2.52654,0.7651 -0.8246,2.58054 c -2.59414,8.11828 -9.04046,23.31277 -13.27169,31.28262 -1.16804,2.20008 -2.12372,4.09064 -2.12372,4.20124 0,0.20302 1.64717,-0.40493 5.78433,-2.13497 z m -94.47833,-2.35994 c -4.415108,-8.79241 -9.571824,-21.28993 -12.829721,-31.09335 -1.937344,-5.82983 -4.977309,-16.28507 -5.751008,-19.7794 l -0.455785,-2.05849 h -21.39495 c -11.767222,0 -21.394945,0.12911 -21.394945,0.2869 0,0.15778 0.859627,1.7435 1.910286,3.52383 13.083115,22.16925 33.637875,40.3761 57.143513,50.61606 2.21035,0.96294 4.07629,1.69323 4.14658,1.62287 0.0701,-0.0702 -0.54806,-1.47363 -1.37397,-3.11842 z M 80.237167,183.54978 c -0.357258,-1.58755 -1.245956,-10.95028 -1.656568,-17.45238 -0.482836,-7.64579 -0.206002,-25.82373 0.520665,-34.18882 l 0.466491,-5.36995 -3.252154,-3.401 c -1.788679,-1.87052 -3.789113,-4.24672 -4.445407,-5.28045 l -1.193258,-1.87951 H 51.249882 c -10.911317,0 -19.512939,0.13925 -19.622991,0.31745 -0.453313,0.73444 -2.444813,9.43163 -3.234106,14.12384 -0.469026,2.78828 -1.048085,7.38913 -1.286799,10.22409 -0.599464,7.11933 -0.242165,20.14842 0.732403,26.70733 0.702681,4.7291 2.725755,13.861 3.549148,16.02041 l 0.375393,0.9845 h 24.327749 24.32775 z m 94.592013,-0.71599 c 3.35658,-6.6682 9.95814,-12.17556 17.71025,-14.7749 1.83825,-0.61642 3.40944,-1.18908 3.49146,-1.27264 0.0821,-0.0834 0.32116,-4.42101 0.53147,-9.63882 0.50176,-12.45103 0.0534,-24.16301 -1.43604,-37.50028 l -0.40975,-3.66948 h -34.79304 -34.79305 l -1.14743,1.70051 c -4.35506,6.4543 -10.93311,11.35431 -17.83607,13.28601 l -2.32393,0.65034 -0.25946,2.29503 c -0.14272,1.26224 -0.41923,5.90722 -0.61451,10.32214 -0.49008,11.08024 0.0433,21.83037 1.81761,36.63307 l 0.41836,3.49052 h 34.4391 34.43912 z m 94.4229,0.26848 c 0.72377,-2.5804 2.82119,-13.64283 3.39381,-17.89989 0.96685,-7.18811 0.8718,-25.02114 -0.17028,-31.94142 -0.85942,-5.70745 -2.27222,-12.31167 -3.24982,-15.19158 l -0.64927,-1.9127 -24.73237,-0.0919 -24.7323,-0.0919 0.18188,0.80795 c 0.35813,1.59096 1.24639,10.95038 1.65656,17.45485 0.43258,6.85975 0.20396,29.25241 -0.35634,34.90481 l -0.28392,2.86395 2.58964,2.506 c 3.0337,2.93569 4.64286,4.94748 6.23054,7.7895 l 1.15164,2.06158 19.3345,-0.0925 19.33451,-0.0926 z M 188.16397,87.606374 C 183.61264,70.451261 175.1046,50.580711 165.20951,33.996185 c -4.767,-7.989647 -3.54672,-7.111252 -10.25958,-7.38526 -3.14626,-0.128421 -7.6185,-0.113911 -9.9383,0.03226 l -4.21778,0.26577 -2.26456,3.494238 C 130.53588,42.737082 123.8977,55.53755 118.10057,69.795964 l -2.25605,5.548967 2.66169,2.623366 c 2.90599,2.864165 6.40496,7.878104 7.66225,10.979926 l 0.79835,1.969608 h 31.03788 31.03785 z m 70.29111,3.012566 c 0,-0.164384 -0.81062,-1.635223 -1.80137,-3.268527 -12.5182,-20.637363 -30.73932,-37.568026 -51.62835,-47.971888 -4.09671,-2.040375 -10.28443,-4.704321 -10.48127,-4.512398 -0.0503,0.0492 1.182,2.733101 2.73881,5.964222 7.08589,14.706574 13.17055,31.444919 16.67854,45.881016 l 1.02221,4.206488 h 21.73571 c 11.95464,0 21.73572,-0.134529 21.73572,-0.298913 z M 69.137564,88.151262 c 1.606934,-3.693416 4.172077,-7.25276 7.459379,-10.350432 4.154639,-3.914994 8.02909,-6.103259 13.112646,-7.405937 l 1.889655,-0.484234 2.01745,-5.337812 c 3.008646,-7.960316 6.513266,-15.986951 10.280216,-23.544774 1.85065,-3.713065 3.31513,-6.797907 3.25435,-6.855199 -0.20593,-0.194217 -5.45196,2.014628 -10.180911,4.286674 -19.31468,9.27983 -36.40267,23.866681 -48.503744,41.404351 -2.48635,3.60339 -6.317584,9.915852 -6.317584,10.409065 0,0.157772 5.836639,0.286881 12.970313,0.286881 h 12.970311 z"
     id="path432" />
</svg>
